<svg width="90" height="90" viewBox="0 0 90 90" fill="none" xmlns="http://www.w3.org/2000/svg">
<g filter="url(#filter0_d_3_3473)">
<rect x="16" y="8" width="58" height="58" rx="20" fill="#EDE0E5"/>
</g>
<path opacity="0.4" d="M53.5 35.19H50.61C48.24 35.19 46.31 33.26 46.31 30.89V28C46.31 27.45 45.86 27 45.31 27H41.07C37.99 27 35.5 29 35.5 32.57V41.43C35.5 45 37.99 47 41.07 47H48.93C52.01 47 54.5 45 54.5 41.43V36.19C54.5 35.64 54.05 35.19 53.5 35.19Z" fill="#BE8D9F"/>
<path d="M48.8002 27.21C48.3902 26.8 47.6802 27.08 47.6802 27.65V31.14C47.6802 32.6 48.9202 33.81 50.4302 33.81C51.3802 33.82 52.7002 33.82 53.8302 33.82C54.4002 33.82 54.7002 33.15 54.3002 32.75C52.8602 31.3 50.2802 28.69 48.8002 27.21Z" fill="#BE8D9F"/>
<path d="M46.5 38.75H40.5C40.09 38.75 39.75 38.41 39.75 38C39.75 37.59 40.09 37.25 40.5 37.25H46.5C46.91 37.25 47.25 37.59 47.25 38C47.25 38.41 46.91 38.75 46.5 38.75Z" fill="#BE8D9F"/>
<path d="M44.5 42.75H40.5C40.09 42.75 39.75 42.41 39.75 42C39.75 41.59 40.09 41.25 40.5 41.25H44.5C44.91 41.25 45.25 41.59 45.25 42C45.25 42.41 44.91 42.75 44.5 42.75Z" fill="#BE8D9F"/>
<defs>
<filter id="filter0_d_3_3473" x="0" y="0" width="90" height="90" filterUnits="userSpaceOnUse" color-interpolation-filters="sRGB">
<feFlood flood-opacity="0" result="BackgroundImageFix"/>
<feColorMatrix in="SourceAlpha" type="matrix" values="0 0 0 0 0 0 0 0 0 0 0 0 0 0 0 0 0 0 127 0" result="hardAlpha"/>
<feOffset dy="8"/>
<feGaussianBlur stdDeviation="8"/>
<feComposite in2="hardAlpha" operator="out"/>
<feColorMatrix type="matrix" values="0 0 0 0 0.73125 0 0 0 0 0.74375 0 0 0 0 0.76875 0 0 0 0.24 0"/>
<feBlend mode="normal" in2="BackgroundImageFix" result="effect1_dropShadow_3_3473"/>
<feBlend mode="normal" in="SourceGraphic" in2="effect1_dropShadow_3_3473" result="shape"/>
</filter>
</defs>
</svg>
