<svg width="90" height="90" viewBox="0 0 90 90" fill="none" xmlns="http://www.w3.org/2000/svg">
<g filter="url(#filter0_d_3_3503)">
<rect x="16" y="8" width="58" height="58" rx="20" fill="#C7C8E5"/>
</g>
<path opacity="0.4" d="M53.5 35.19H50.61C48.24 35.19 46.31 33.26 46.31 30.89V28C46.31 27.45 45.86 27 45.31 27H41.07C37.99 27 35.5 29 35.5 32.57V41.43C35.5 45 37.99 47 41.07 47H48.93C52.01 47 54.5 45 54.5 41.43V36.19C54.5 35.64 54.05 35.19 53.5 35.19Z" fill="#7C7FC2"/>
<path d="M48.8002 27.21C48.3902 26.8 47.6802 27.08 47.6802 27.65V31.14C47.6802 32.6 48.9202 33.81 50.4302 33.81C51.3802 33.82 52.7002 33.82 53.8302 33.82C54.4002 33.82 54.7002 33.15 54.3002 32.75C52.8602 31.3 50.2802 28.69 48.8002 27.21Z" fill="#7C7FC2"/>
<path fill-rule="evenodd" clip-rule="evenodd" d="M40.3282 27.6619C37.5591 28.3044 35.5 30.7834 35.5 33.75C35.5 34.1642 35.1642 34.5 34.75 34.5C34.3358 34.5 34 34.1642 34 33.75C34 29.4658 37.4658 26 41.75 26C42.0202 26 42.2695 26.1453 42.4026 26.3805C42.5358 26.6156 42.5321 26.9042 42.3931 27.1359L41.3431 28.8859C41.13 29.2411 40.6693 29.3562 40.3141 29.1431C39.959 28.93 39.8438 28.4693 40.0569 28.1141L40.3282 27.6619ZM54.75 39C55.1642 39 55.5 39.3358 55.5 39.75C55.5 44.0342 52.0342 47.5 47.75 47.5C47.4798 47.5 47.2305 47.3547 47.0974 47.1195C46.9642 46.8844 46.9679 46.5958 47.1069 46.3641L48.1569 44.6141C48.37 44.2589 48.8307 44.1438 49.1859 44.3569C49.541 44.57 49.6562 45.0307 49.4431 45.3859L49.1718 45.8381C51.9409 45.1956 54 42.7166 54 39.75C54 39.3358 54.3358 39 54.75 39Z" fill="#7C7FC2"/>
<defs>
<filter id="filter0_d_3_3503" x="0" y="0" width="90" height="90" filterUnits="userSpaceOnUse" color-interpolation-filters="sRGB">
<feFlood flood-opacity="0" result="BackgroundImageFix"/>
<feColorMatrix in="SourceAlpha" type="matrix" values="0 0 0 0 0 0 0 0 0 0 0 0 0 0 0 0 0 0 127 0" result="hardAlpha"/>
<feOffset dy="8"/>
<feGaussianBlur stdDeviation="8"/>
<feComposite in2="hardAlpha" operator="out"/>
<feColorMatrix type="matrix" values="0 0 0 0 0.73125 0 0 0 0 0.74375 0 0 0 0 0.76875 0 0 0 0.24 0"/>
<feBlend mode="normal" in2="BackgroundImageFix" result="effect1_dropShadow_3_3503"/>
<feBlend mode="normal" in="SourceGraphic" in2="effect1_dropShadow_3_3503" result="shape"/>
</filter>
</defs>
</svg>
