<svg width="16" height="17" viewBox="0 0 16 17" fill="none" xmlns="http://www.w3.org/2000/svg">
<path d="M14.6134 1.39166C12.7885 -0.443441 11.0043 -0.484221 9.12846 1.39166L7.97642 2.5335C7.87447 2.63545 7.84388 2.77818 7.88466 2.91072C8.59832 5.4085 10.5965 7.40672 13.0943 8.12037C13.1249 8.13057 13.1759 8.13057 13.2065 8.13057C13.3084 8.13057 13.4104 8.08979 13.4817 8.01842L14.6134 6.87658C15.5411 5.94883 15.9999 5.06187 15.9999 4.15451C15.9999 3.23696 15.5411 2.3296 14.6134 1.39166Z" fill="#FA9043"/>
<path d="M11.3915 8.97839C11.1162 8.84585 10.8511 8.71332 10.6065 8.56039C10.4026 8.43805 10.1987 8.30551 10.005 8.16278C9.84184 8.06083 9.65833 7.90791 9.47482 7.75498C9.45443 7.74479 9.39326 7.69381 9.3117 7.61225C8.99565 7.35738 8.65922 7.01075 8.34317 6.63353C8.32278 6.61314 8.26161 6.55197 8.21064 6.46022C8.10869 6.34807 7.95576 6.15437 7.82323 5.94027C7.71108 5.79754 7.57855 5.59364 7.45621 5.37954C7.30328 5.12467 7.17075 4.86979 7.04841 4.60472C6.91587 4.31926 6.81392 4.05419 6.72216 3.79932L1.23724 9.28424C0.880419 9.64106 0.533788 10.3139 0.462422 10.8135L0.0240368 13.8516C-0.0677183 14.4939 0.105597 15.0954 0.503203 15.493C0.839638 15.8294 1.29841 16.0028 1.80817 16.0028C1.92031 16.0028 2.03246 15.9926 2.1446 15.9824L5.17252 15.5542C5.67208 15.4828 6.34495 15.1464 6.70177 14.7794L12.1867 9.29443C11.9318 9.21287 11.6769 9.10073 11.3915 8.97839Z" fill="#FA9043"/>
</svg>
