<svg width="32" height="32" viewBox="0 0 32 32" fill="none" xmlns="http://www.w3.org/2000/svg">
<path opacity="0.4" d="M28.3332 12.1999C25.2532 7.35991 20.7465 4.57324 15.9998 4.57324C13.6265 4.57324 11.3198 5.26658 9.21317 6.55991C7.1065 7.86658 5.21317 9.77324 3.6665 12.1999C2.33317 14.2932 2.33317 17.6932 3.6665 19.7866C6.7465 24.6399 11.2532 27.4132 15.9998 27.4132C18.3732 27.4132 20.6798 26.7199 22.7865 25.4266C24.8932 24.1199 26.7865 22.2132 28.3332 19.7866C29.6665 17.7066 29.6665 14.2932 28.3332 12.1999ZM15.9998 21.3866C13.0132 21.3866 10.6132 18.9732 10.6132 15.9999C10.6132 13.0266 13.0132 10.6132 15.9998 10.6132C18.9865 10.6132 21.3865 13.0266 21.3865 15.9999C21.3865 18.9732 18.9865 21.3866 15.9998 21.3866Z" fill="#97B06A"/>
<path d="M15.9998 10.6665C14.3287 10.6665 12.8235 11.4487 11.8517 12.6576C11.105 13.5702 10.6665 14.7317 10.6665 15.9998C10.6665 18.9509 13.0606 21.3332 15.9998 21.3332C18.3228 21.3332 20.302 19.8517 21.025 17.7776C21.2265 17.2206 21.3332 16.628 21.3332 15.9998C21.3332 13.0606 18.9509 10.6665 15.9998 10.6665ZM19.1524 18.3228C19.1168 18.3939 19.0694 18.4769 19.0102 18.5362L18.0502 19.4843C17.9317 19.6147 17.7657 19.6739 17.5998 19.6739C17.422 19.6739 17.2562 19.6147 17.1376 19.4843C16.9243 19.2828 16.9006 18.9628 17.0309 18.7257H14.3524C13.4991 18.7257 12.7998 18.0265 12.7998 17.1613V17.0309C12.7998 16.6635 13.0961 16.3791 13.4517 16.3791C13.8072 16.3791 14.1036 16.6635 14.1036 17.0309V17.1613C14.1036 17.3035 14.2102 17.4221 14.3524 17.4221H17.0309C16.9006 17.1732 16.9243 16.865 17.1376 16.6517C17.3865 16.4028 17.8013 16.4028 18.0502 16.6517L19.0102 17.6117C19.0694 17.6709 19.1168 17.742 19.1524 17.825C19.2117 17.9791 19.2117 18.1569 19.1524 18.3228ZM19.1999 14.9687C19.1999 15.3361 18.9036 15.6206 18.548 15.6206C18.1925 15.6206 17.8961 15.3361 17.8961 14.9687V14.8384C17.8961 14.6962 17.7895 14.5776 17.6473 14.5776H14.9687C15.0991 14.8265 15.0754 15.1347 14.862 15.348C14.7435 15.4665 14.5776 15.5376 14.3999 15.5376C14.2339 15.5376 14.068 15.4665 13.9495 15.348L12.9895 14.388C12.9302 14.3287 12.8828 14.2576 12.8473 14.1747C12.788 14.0206 12.788 13.8428 12.8473 13.6768C12.8828 13.6057 12.9302 13.5228 12.9895 13.4635L13.9495 12.5154C14.1984 12.2546 14.6131 12.2546 14.862 12.5154C15.0754 12.7169 15.0991 13.0369 14.9687 13.2739H17.6473C18.5006 13.2739 19.1999 13.9732 19.1999 14.8384V14.9687Z" fill="#97B06A"/>
</svg>
