<svg width="90" height="90" viewBox="0 0 90 90" fill="none" xmlns="http://www.w3.org/2000/svg">
<g filter="url(#filter0_d_3_3491)">
<rect x="16" y="8" width="58" height="58" rx="20" fill="#FDD9C0"/>
</g>
<path opacity="0.4" d="M53.5 35.19H50.61C48.24 35.19 46.31 33.26 46.31 30.89V28C46.31 27.45 45.86 27 45.31 27H41.07C37.99 27 35.5 29 35.5 32.57V41.43C35.5 45 37.99 47 41.07 47H48.93C52.01 47 54.5 45 54.5 41.43V36.19C54.5 35.64 54.05 35.19 53.5 35.19Z" fill="#FA9043"/>
<path d="M48.8002 27.21C48.3902 26.8 47.6802 27.08 47.6802 27.65V31.14C47.6802 32.6 48.9202 33.81 50.4302 33.81C51.3802 33.82 52.7002 33.82 53.8302 33.82C54.4002 33.82 54.7002 33.15 54.3002 32.75C52.8602 31.3 50.2802 28.69 48.8002 27.21Z" fill="#FA9043"/>
<path d="M48.7156 39.2085C48.3962 38.7547 47.8584 38.5026 47.2197 38.5026H43.9421C43.7236 38.5026 43.5219 38.4185 43.3874 38.2504C43.253 38.0824 43.1857 37.8639 43.2193 37.6285L43.6227 35.0065C43.7908 34.2333 43.2698 33.3425 42.4966 33.0903C41.7738 32.8214 40.9166 33.1912 40.5805 33.6954L37.3197 38.5361V37.9311C37.3197 36.7545 36.8154 36.2671 35.5716 36.2671H34.7481C33.5043 36.2671 33 36.7545 33 37.9311V45.9654C33 47.142 33.5043 47.6294 34.7481 47.6294H35.5716C36.7482 47.6294 37.2524 47.1755 37.3029 46.0998L39.7737 47.9991C40.1098 48.3353 40.8662 48.5202 41.404 48.5202H44.5136C45.5893 48.5202 46.665 47.7134 46.9003 46.7217L48.8668 40.738C49.0854 40.2001 49.0349 39.6455 48.7156 39.2085Z" fill="#FA9043"/>
<defs>
<filter id="filter0_d_3_3491" x="0" y="0" width="90" height="90" filterUnits="userSpaceOnUse" color-interpolation-filters="sRGB">
<feFlood flood-opacity="0" result="BackgroundImageFix"/>
<feColorMatrix in="SourceAlpha" type="matrix" values="0 0 0 0 0 0 0 0 0 0 0 0 0 0 0 0 0 0 127 0" result="hardAlpha"/>
<feOffset dy="8"/>
<feGaussianBlur stdDeviation="8"/>
<feComposite in2="hardAlpha" operator="out"/>
<feColorMatrix type="matrix" values="0 0 0 0 0.73125 0 0 0 0 0.74375 0 0 0 0 0.76875 0 0 0 0.24 0"/>
<feBlend mode="normal" in2="BackgroundImageFix" result="effect1_dropShadow_3_3491"/>
<feBlend mode="normal" in="SourceGraphic" in2="effect1_dropShadow_3_3491" result="shape"/>
</filter>
</defs>
</svg>
