<svg width="90" height="90" viewBox="0 0 90 90" fill="none" xmlns="http://www.w3.org/2000/svg">
<g filter="url(#filter0_d_3_3488)">
<rect x="16" y="8" width="58" height="58" rx="20" fill="#FDD9C0"/>
</g>
<path opacity="0.4" d="M53.5 35.19H50.61C48.24 35.19 46.31 33.26 46.31 30.89V28C46.31 27.45 45.86 27 45.31 27H41.07C37.99 27 35.5 29 35.5 32.57V41.43C35.5 45 37.99 47 41.07 47H48.93C52.01 47 54.5 45 54.5 41.43V36.19C54.5 35.64 54.05 35.19 53.5 35.19Z" fill="#FA9043"/>
<path d="M48.8002 27.21C48.3902 26.8 47.6802 27.08 47.6802 27.65V31.14C47.6802 32.6 48.9202 33.81 50.4302 33.81C51.3802 33.82 52.7002 33.82 53.8302 33.82C54.4002 33.82 54.7002 33.15 54.3002 32.75C52.8602 31.3 50.2802 28.69 48.8002 27.21Z" fill="#FA9043"/>
<path d="M47.6134 34.3917C45.7885 32.5566 44.0043 32.5158 42.1285 34.3917L40.9764 35.5335C40.8745 35.6355 40.8439 35.7782 40.8847 35.9107C41.5983 38.4085 43.5965 40.4067 46.0943 41.1204C46.1249 41.1306 46.1759 41.1306 46.2065 41.1306C46.3084 41.1306 46.4104 41.0898 46.4817 41.0184L47.6134 39.8766C48.5411 38.9488 48.9999 38.0619 48.9999 37.1545C48.9999 36.237 48.5411 35.3296 47.6134 34.3917Z" fill="#FA9043"/>
<path d="M44.3915 41.9784C44.1162 41.8459 43.8511 41.7133 43.6065 41.5604C43.4026 41.4381 43.1987 41.3055 43.005 41.1628C42.8418 41.0608 42.6583 40.9079 42.4748 40.755C42.4544 40.7448 42.3933 40.6938 42.3117 40.6123C41.9957 40.3574 41.6592 40.0107 41.3432 39.6335C41.3228 39.6131 41.2616 39.552 41.2106 39.4602C41.1087 39.3481 40.9558 39.1544 40.8232 38.9403C40.7111 38.7975 40.5785 38.5936 40.4562 38.3795C40.3033 38.1247 40.1707 37.8698 40.0484 37.6047C39.9159 37.3193 39.8139 37.0542 39.7222 36.7993L34.2372 42.2842C33.8804 42.6411 33.5338 43.3139 33.4624 43.8135L33.024 46.8516C32.9323 47.4939 33.1056 48.0954 33.5032 48.493C33.8396 48.8294 34.2984 49.0028 34.8082 49.0028C34.9203 49.0028 35.0325 48.9926 35.1446 48.9824L38.1725 48.5542C38.6721 48.4828 39.3449 48.1464 39.7018 47.7794L45.1867 42.2944C44.9318 42.2129 44.6769 42.1007 44.3915 41.9784Z" fill="#FA9043"/>
<defs>
<filter id="filter0_d_3_3488" x="0" y="0" width="90" height="90" filterUnits="userSpaceOnUse" color-interpolation-filters="sRGB">
<feFlood flood-opacity="0" result="BackgroundImageFix"/>
<feColorMatrix in="SourceAlpha" type="matrix" values="0 0 0 0 0 0 0 0 0 0 0 0 0 0 0 0 0 0 127 0" result="hardAlpha"/>
<feOffset dy="8"/>
<feGaussianBlur stdDeviation="8"/>
<feComposite in2="hardAlpha" operator="out"/>
<feColorMatrix type="matrix" values="0 0 0 0 0.73125 0 0 0 0 0.74375 0 0 0 0 0.76875 0 0 0 0.24 0"/>
<feBlend mode="normal" in2="BackgroundImageFix" result="effect1_dropShadow_3_3488"/>
<feBlend mode="normal" in="SourceGraphic" in2="effect1_dropShadow_3_3488" result="shape"/>
</filter>
</defs>
</svg>
