<svg width="90" height="90" viewBox="0 0 90 90" fill="none" xmlns="http://www.w3.org/2000/svg">
<g filter="url(#filter0_d_3_3498)">
<rect x="16" y="8" width="58" height="58" rx="20" fill="#DCE4CC"/>
</g>
<path opacity="0.4" d="M57.3332 33.1999C54.2532 28.3599 49.7465 25.5732 44.9998 25.5732C42.6265 25.5732 40.3198 26.2666 38.2132 27.5599C36.1065 28.8666 34.2132 30.7732 32.6665 33.1999C31.3332 35.2932 31.3332 38.6932 32.6665 40.7866C35.7465 45.6399 40.2532 48.4132 44.9998 48.4132C47.3732 48.4132 49.6798 47.7199 51.7865 46.4266C53.8932 45.1199 55.7865 43.2132 57.3332 40.7866C58.6665 38.7066 58.6665 35.2932 57.3332 33.1999ZM44.9998 42.3866C42.0132 42.3866 39.6132 39.9732 39.6132 36.9999C39.6132 34.0266 42.0132 31.6132 44.9998 31.6132C47.9865 31.6132 50.3865 34.0266 50.3865 36.9999C50.3865 39.9732 47.9865 42.3866 44.9998 42.3866Z" fill="#97B06A"/>
<path d="M44.9998 31.6665C43.3287 31.6665 41.8235 32.4487 40.8517 33.6576C40.105 34.5702 39.6665 35.7317 39.6665 36.9998C39.6665 39.9509 42.0606 42.3332 44.9998 42.3332C47.3228 42.3332 49.302 40.8517 50.025 38.7776C50.2265 38.2206 50.3332 37.628 50.3332 36.9998C50.3332 34.0606 47.9509 31.6665 44.9998 31.6665ZM48.1524 39.3228C48.1168 39.3939 48.0694 39.4769 48.0102 39.5362L47.0502 40.4843C46.9317 40.6147 46.7657 40.6739 46.5998 40.6739C46.422 40.6739 46.2562 40.6147 46.1376 40.4843C45.9243 40.2828 45.9006 39.9628 46.0309 39.7257H43.3524C42.4991 39.7257 41.7998 39.0265 41.7998 38.1613V38.0309C41.7998 37.6635 42.0961 37.3791 42.4517 37.3791C42.8072 37.3791 43.1036 37.6635 43.1036 38.0309V38.1613C43.1036 38.3035 43.2102 38.4221 43.3524 38.4221H46.0309C45.9006 38.1732 45.9243 37.865 46.1376 37.6517C46.3865 37.4028 46.8013 37.4028 47.0502 37.6517L48.0102 38.6117C48.0694 38.6709 48.1168 38.742 48.1524 38.825C48.2117 38.9791 48.2117 39.1569 48.1524 39.3228ZM48.1999 35.9687C48.1999 36.3361 47.9036 36.6206 47.548 36.6206C47.1925 36.6206 46.8961 36.3361 46.8961 35.9687V35.8384C46.8961 35.6962 46.7895 35.5776 46.6473 35.5776H43.9687C44.0991 35.8265 44.0754 36.1347 43.862 36.348C43.7435 36.4665 43.5776 36.5376 43.3999 36.5376C43.2339 36.5376 43.068 36.4665 42.9495 36.348L41.9895 35.388C41.9302 35.3287 41.8828 35.2576 41.8473 35.1747C41.788 35.0206 41.788 34.8428 41.8473 34.6768C41.8828 34.6057 41.9302 34.5228 41.9895 34.4635L42.9495 33.5154C43.1984 33.2546 43.6131 33.2546 43.862 33.5154C44.0754 33.7169 44.0991 34.0369 43.9687 34.2739H46.6473C47.5006 34.2739 48.1999 34.9732 48.1999 35.8384V35.9687Z" fill="#97B06A"/>
<defs>
<filter id="filter0_d_3_3498" x="0" y="0" width="90" height="90" filterUnits="userSpaceOnUse" color-interpolation-filters="sRGB">
<feFlood flood-opacity="0" result="BackgroundImageFix"/>
<feColorMatrix in="SourceAlpha" type="matrix" values="0 0 0 0 0 0 0 0 0 0 0 0 0 0 0 0 0 0 127 0" result="hardAlpha"/>
<feOffset dy="8"/>
<feGaussianBlur stdDeviation="8"/>
<feComposite in2="hardAlpha" operator="out"/>
<feColorMatrix type="matrix" values="0 0 0 0 0.73125 0 0 0 0 0.74375 0 0 0 0 0.76875 0 0 0 0.24 0"/>
<feBlend mode="normal" in2="BackgroundImageFix" result="effect1_dropShadow_3_3498"/>
<feBlend mode="normal" in="SourceGraphic" in2="effect1_dropShadow_3_3498" result="shape"/>
</filter>
</defs>
</svg>
