<svg width="90" height="90" viewBox="0 0 90 90" fill="none" xmlns="http://www.w3.org/2000/svg">
<g filter="url(#filter0_d_3_3483)">
<rect x="16" y="8" width="58" height="58" rx="20" fill="#DCE4CC"/>
</g>
<path opacity="0.4" d="M52.5 34.9702V44.0002C52.5 46.0002 52 47.0002 49.5 47.0002H40.5C38 47.0002 37.5 46.0002 37.5 44.0002V34.9702C37.66 34.9902 37.83 35.0002 38 35.0002H52C52.17 35.0002 52.34 34.9902 52.5 34.9702Z" fill="#97B06A"/>
<path d="M55 30V32C55 33.83 54.17 34.82 52.5 34.97C52.34 34.99 52.17 35 52 35H38C37.83 35 37.66 34.99 37.5 34.97C35.83 34.82 35 33.83 35 32V30C35 28 36 27 38 27H52C54 27 55 28 55 30Z" fill="#97B06A"/>
<path d="M46.8202 39.75H43.1802C42.7702 39.75 42.4302 39.41 42.4302 39C42.4302 38.59 42.7702 38.25 43.1802 38.25H46.8202C47.2302 38.25 47.5702 38.59 47.5702 39C47.5702 39.41 47.2302 39.75 46.8202 39.75Z" fill="#97B06A"/>
<defs>
<filter id="filter0_d_3_3483" x="0" y="0" width="90" height="90" filterUnits="userSpaceOnUse" color-interpolation-filters="sRGB">
<feFlood flood-opacity="0" result="BackgroundImageFix"/>
<feColorMatrix in="SourceAlpha" type="matrix" values="0 0 0 0 0 0 0 0 0 0 0 0 0 0 0 0 0 0 127 0" result="hardAlpha"/>
<feOffset dy="8"/>
<feGaussianBlur stdDeviation="8"/>
<feComposite in2="hardAlpha" operator="out"/>
<feColorMatrix type="matrix" values="0 0 0 0 0.73125 0 0 0 0 0.74375 0 0 0 0 0.76875 0 0 0 0.24 0"/>
<feBlend mode="normal" in2="BackgroundImageFix" result="effect1_dropShadow_3_3483"/>
<feBlend mode="normal" in="SourceGraphic" in2="effect1_dropShadow_3_3483" result="shape"/>
</filter>
</defs>
</svg>
