<svg width="90" height="90" viewBox="0 0 90 90" fill="none" xmlns="http://www.w3.org/2000/svg">
<g filter="url(#filter0_d_3_3510)">
<rect x="16" y="8" width="58" height="58" rx="20" fill="#EDE0E5"/>
</g>
<path opacity="0.4" d="M53.5 35.19H50.61C48.24 35.19 46.31 33.26 46.31 30.89V28C46.31 27.45 45.86 27 45.31 27H41.07C37.99 27 35.5 29 35.5 32.57V41.43C35.5 45 37.99 47 41.07 47H48.93C52.01 47 54.5 45 54.5 41.43V36.19C54.5 35.64 54.05 35.19 53.5 35.19Z" fill="#BE8D9F"/>
<path d="M48.8002 27.21C48.3902 26.8 47.6802 27.08 47.6802 27.65V31.14C47.6802 32.6 48.9202 33.81 50.4302 33.81C51.3802 33.82 52.7002 33.82 53.8302 33.82C54.4002 33.82 54.7002 33.15 54.3002 32.75C52.8602 31.3 50.2802 28.69 48.8002 27.21Z" fill="#BE8D9F"/>
<path d="M41 33C36.58 33 33 36.58 33 41C33 42.5 33.42 43.92 34.16 45.12C35.54 47.44 38.08 49 41 49C43.92 49 46.46 47.44 47.84 45.12C48.58 43.92 49 42.5 49 41C49 36.58 45.42 33 41 33ZM44.94 40.34L40.68 44.28C40.4 44.54 40.02 44.6801 39.66 44.6801C39.28 44.6801 38.9 44.54 38.6 44.24L36.62 42.26C36.04 41.68 36.04 40.72 36.62 40.14C37.2 39.56 38.16 39.56 38.74 40.14L39.7 41.1L42.9 38.14C43.5 37.58 44.46 37.62 45.02 38.22C45.58 38.82 45.54 39.78 44.94 40.34Z" fill="#BE8D9F"/>
<defs>
<filter id="filter0_d_3_3510" x="0" y="0" width="90" height="90" filterUnits="userSpaceOnUse" color-interpolation-filters="sRGB">
<feFlood flood-opacity="0" result="BackgroundImageFix"/>
<feColorMatrix in="SourceAlpha" type="matrix" values="0 0 0 0 0 0 0 0 0 0 0 0 0 0 0 0 0 0 127 0" result="hardAlpha"/>
<feOffset dy="8"/>
<feGaussianBlur stdDeviation="8"/>
<feComposite in2="hardAlpha" operator="out"/>
<feColorMatrix type="matrix" values="0 0 0 0 0.73125 0 0 0 0 0.74375 0 0 0 0 0.76875 0 0 0 0.24 0"/>
<feBlend mode="normal" in2="BackgroundImageFix" result="effect1_dropShadow_3_3510"/>
<feBlend mode="normal" in="SourceGraphic" in2="effect1_dropShadow_3_3510" result="shape"/>
</filter>
</defs>
</svg>
